<svg width="960" height="1200" viewBox="0 0 960 1200" fill="none" xmlns="http://www.w3.org/2000/svg">
  <rect width="960" height="1200" fill="#09090B"/>
  <rect x="56" y="56" width="848" height="1088" rx="36" fill="url(#bg)"/>
  <rect x="92" y="92" width="776" height="1016" rx="28" fill="#0F172A" stroke="#334155"/>
  <text x="120" y="168" fill="#94A3B8" font-family="IBM Plex Mono, monospace" font-size="24" letter-spacing="5">AWWWARDS</text>
  <text x="120" y="300" fill="#F8FAFC" font-family="Arial, sans-serif" font-size="86" font-weight="700">Mobile</text>
  <text x="120" y="392" fill="#F8FAFC" font-family="Arial, sans-serif" font-size="86" font-weight="700">Excellence</text>
  <text x="120" y="462" fill="#CBD5E1" font-family="IBM Plex Mono, monospace" font-size="26" letter-spacing="3">PERFORMANCE / 2023</text>
  <rect x="150" y="560" width="254" height="426" rx="36" fill="#020617" stroke="#475569" stroke-width="10"/>
  <rect x="174" y="602" width="206" height="300" rx="18" fill="url(#screen)"/>
  <circle cx="277" cy="946" r="20" fill="#475569"/>
  <rect x="470" y="602" width="280" height="20" rx="10" fill="#7C3AED"/>
  <rect x="470" y="648" width="210" height="20" rx="10" fill="#334155"/>
  <rect x="470" y="710" width="310" height="20" rx="10" fill="#334155"/>
  <rect x="470" y="756" width="250" height="20" rx="10" fill="#334155"/>
  <rect x="470" y="818" width="290" height="20" rx="10" fill="#334155"/>
  <defs>
    <linearGradient id="bg" x1="56" y1="56" x2="904" y2="1144" gradientUnits="userSpaceOnUse">
      <stop stop-color="#111827"/>
      <stop offset="1" stop-color="#020617"/>
    </linearGradient>
    <linearGradient id="screen" x1="174" y1="602" x2="380" y2="902" gradientUnits="userSpaceOnUse">
      <stop stop-color="#A78BFA"/>
      <stop offset="1" stop-color="#0EA5E9"/>
    </linearGradient>
  </defs>
</svg>
