<svg width="960" height="1200" viewBox="0 0 960 1200" fill="none" xmlns="http://www.w3.org/2000/svg">
  <rect width="960" height="1200" fill="#0A0A0A"/>
  <rect x="56" y="56" width="848" height="1088" rx="36" fill="url(#bg)"/>
  <rect x="92" y="92" width="776" height="1016" rx="28" fill="#F3F0EA"/>
  <text x="120" y="168" fill="#78716C" font-family="IBM Plex Mono, monospace" font-size="24" letter-spacing="5">AWWWARDS</text>
  <text x="120" y="300" fill="#111111" font-family="Arial, sans-serif" font-size="86" font-weight="700">Honorable</text>
  <text x="120" y="392" fill="#111111" font-family="Arial, sans-serif" font-size="86" font-weight="700">Mention</text>
  <text x="120" y="462" fill="#57534E" font-family="IBM Plex Mono, monospace" font-size="26" letter-spacing="3">IMMERSIVE / 2023</text>
  <rect x="120" y="560" width="230" height="230" rx="115" fill="#111111"/>
  <path d="M233 628L287 722H179L233 628Z" fill="#F3F0EA"/>
  <path d="M233 720C258 720 278 700 278 675C278 650 258 630 233 630C208 630 188 650 188 675C188 700 208 720 233 720Z" fill="#D6D3D1"/>
  <rect x="120" y="870" width="720" height="2" fill="#D6D3D1"/>
  <text x="120" y="942" fill="#111111" font-family="Arial, sans-serif" font-size="38" font-weight="700">Immersive direction with a crafted front-end finish.</text>
  <defs>
    <linearGradient id="bg" x1="56" y1="56" x2="904" y2="1144" gradientUnits="userSpaceOnUse">
      <stop stop-color="#E7E5E4"/>
      <stop offset="1" stop-color="#CFC8BE"/>
    </linearGradient>
  </defs>
</svg>
