<svg width="960" height="1200" viewBox="0 0 960 1200" fill="none" xmlns="http://www.w3.org/2000/svg">
  <rect width="960" height="1200" fill="#050505"/>
  <rect x="56" y="56" width="848" height="1088" rx="36" fill="url(#bg)"/>
  <rect x="92" y="92" width="776" height="1016" rx="28" fill="#0F0F10" stroke="#27272A"/>
  <text x="120" y="168" fill="#A1A1AA" font-family="IBM Plex Mono, monospace" font-size="24" letter-spacing="5">CSS AWARDS</text>
  <text x="120" y="300" fill="#FAFAFA" font-family="Arial, sans-serif" font-size="86" font-weight="700">Best UX</text>
  <text x="120" y="392" fill="#FAFAFA" font-family="Arial, sans-serif" font-size="86" font-weight="700">Design</text>
  <text x="120" y="462" fill="#A1A1AA" font-family="IBM Plex Mono, monospace" font-size="26" letter-spacing="3">UX / UI / 2021</text>
  <path d="M120 640C120 595.817 155.817 560 200 560H760C804.183 560 840 595.817 840 640V840C840 884.183 804.183 920 760 920H200C155.817 920 120 884.183 120 840V640Z" fill="#111111"/>
  <path d="M210 708C210 650.562 256.562 604 314 604H646C703.438 604 750 650.562 750 708V772C750 829.438 703.438 876 646 876H314C256.562 876 210 829.438 210 772V708Z" fill="url(#panel)"/>
  <circle cx="314" cy="740" r="62" fill="#FAFAFA" fill-opacity="0.16"/>
  <circle cx="646" cy="740" r="62" fill="#FAFAFA" fill-opacity="0.16"/>
  <rect x="360" y="718" width="240" height="44" rx="22" fill="#FAFAFA"/>
  <defs>
    <linearGradient id="bg" x1="56" y1="56" x2="904" y2="1144" gradientUnits="userSpaceOnUse">
      <stop stop-color="#18181B"/>
      <stop offset="1" stop-color="#09090B"/>
    </linearGradient>
    <linearGradient id="panel" x1="210" y1="604" x2="750" y2="876" gradientUnits="userSpaceOnUse">
      <stop stop-color="#7C3AED"/>
      <stop offset="1" stop-color="#27272A"/>
    </linearGradient>
  </defs>
</svg>
